<?xml version="1.0" ?><svg data-name="Layer 1" id="Layer_1" viewBox="0 0 150 150" xmlns="http://www.w3.org/2000/svg"><defs><style>.cls-1{fill:#FFD700;}.cls-2{fill:#2fbec1;}.cls-3{fill:#fff;}</style></defs><title/><circle class="cls-1" cx="75" cy="75" r="65"/><rect class="cls-2" height="31.83" width="36.67" x="55.7" y="41.17"/><path class="cls-3" d="M105.64,59.16h-0.21c-0.13-1.11-.63-2.17-2.25-3.79l-0.58.58-5.37-5.39-1,1,5.37,5.39-0.51.51a5.13,5.13,0,0,1,1.33,1.72h0a1,1,0,0,0-1,1V63.3a1,1,0,0,0,1,1h0.14v40l0,0.23a2.81,2.81,0,0,1-.37,1.92,1.44,1.44,0,0,1-1.24.41,2.22,2.22,0,0,1-1.64-.51,1.88,1.88,0,0,1-.43-1.22V74c0-3.23-1.66-4.18-2.65-4.46A9.51,9.51,0,0,0,94,69.33V43.93a5.85,5.85,0,0,0-5.85-5.85H59.36a5.85,5.85,0,0,0-5.85,5.85v62.15a5.85,5.85,0,0,0,5.85,5.85H88.14A5.85,5.85,0,0,0,94,106.07V72.25a6.79,6.79,0,0,1,1.43.11c0.45,0.13.52,1.08,0.52,1.64v30.93a4.79,4.79,0,0,0,1.2,3.34,5,5,0,0,0,3.8,1.45,4.33,4.33,0,0,0,3.47-1.45,5.59,5.59,0,0,0,1-4.14V64.27h0.18a1,1,0,0,0,1-1V60.13A1,1,0,0,0,105.64,59.16Zm-48.48-12a5,5,0,0,1,5-5H85.34a5,5,0,0,1,5,5V53.4H57.16V47.14ZM85.34,71.52H62.16a5,5,0,0,1-5-5V59.42H90.34v7.11A5,5,0,0,1,85.34,71.52Z"/></svg>